<svg width="1341" height="1422" viewBox="0 0 1341 1422" fill="none" xmlns="http://www.w3.org/2000/svg">
<path d="M515.748 34.1191C526.081 31.7351 533.95 33.4016 541.461 40.663C547.403 46.398 586.319 112.408 590.528 122.236C601.7 148.326 574.417 172.391 551.982 156.05C542.014 148.788 498.987 78.9893 496.074 66.8808C493.082 54.456 503.159 37.0261 515.748 34.1191Z" fill="#4D9A58"/>
<path d="M810.326 34.1189C836.793 28.019 850.228 50.5332 841.403 74.6833C837.268 86.0073 806.355 134.679 798.011 145.328C795.858 148.07 785.805 158.251 783.22 159.023C761.929 165.367 741.944 148.003 748.002 126.176C749.899 119.322 786.438 57.4663 792.428 49.4629C796.454 44.0745 803.715 35.6453 810.326 34.1189Z" fill="#4D9A58"/>
<path d="M663.053 0.846607C682.192 -3.50784 694.958 9.46428 696.995 27.6666C698.977 45.3398 699.421 103.213 696.429 119.761C691.254 148.357 648.457 149.676 644.76 113.162C641.993 85.801 645.94 53.6718 642.57 25.5138C642.984 16.294 654.217 2.85963 663.053 0.846607Z" fill="#4D9A58"/>
<path d="M654.228 876.967C536.238 860.212 376.614 746.431 302.698 654.774C220.073 552.317 169.82 398.02 259.871 283.053C289.221 426.841 419.106 530.016 556.825 563.38C547.374 627.602 549.302 686.575 569.371 749.198C584.94 797.766 611.626 847.641 654.228 876.967Z" fill="#4D9A58"/>
<path d="M673.233 318.69C611.298 383.825 569.955 474.174 556.825 563.379C419.106 530.015 289.221 426.84 259.871 283.052C345.233 174.075 516.498 179.908 617.343 264.114L673.233 316.313C673.41 317.055 672.996 317.991 673.233 318.69Z" fill="#46BBBB"/>
<path d="M1084.22 285.43C1047.07 428.257 925.477 529.37 784.888 563.379C773.406 483.174 744.896 417.329 698.924 351.203C694.643 345.036 674.3 321.816 673.236 318.691C672.998 317.991 673.412 317.055 673.236 316.313C705.949 278.838 743.533 245.018 789.675 224.888C888.58 181.744 1016.33 196.395 1084.22 285.43Z" fill="#46BBBB"/>
<path d="M694.616 874.589C676.299 877.989 673.908 879.758 654.228 876.967C611.626 847.641 584.94 797.766 569.371 749.198C549.302 686.575 547.374 627.602 556.825 563.38C633.393 581.929 708.343 581.898 784.886 563.38C786.273 573.031 789.168 583.157 789.739 592.973C795.614 694.129 770.844 803.896 694.616 874.589Z" fill="#256645"/>
<path d="M1067.64 614.508C994.484 725.832 826.479 850.104 694.617 874.589C770.844 803.896 795.615 694.129 789.74 592.973C789.168 583.157 786.273 573.031 784.887 563.38C925.476 529.371 1047.07 428.258 1084.22 285.431C1158.79 383.236 1130.93 518.205 1067.64 614.508Z" fill="#4D9A58"/>
<path d="M784.887 563.38C708.344 581.899 633.394 581.929 556.826 563.38C569.956 474.175 611.299 383.826 673.235 318.692C674.299 321.818 694.642 345.037 698.923 351.204C744.895 417.33 773.405 483.175 784.887 563.38Z" fill="#297BBE"/>
<path d="M776.772 1255.25V1395.41C628.562 1405.32 539.375 1372.52 401.499 1339.5C277.652 1309.85 152.054 1319.71 47.6485 1396.8C41.6095 1401.26 18.8702 1424.68 14.2178 1421.53C11.6514 1419.8 3.42897 1368.13 2.58971 1360.69C-26.0116 1107.4 186.367 905.189 438.299 989.116C500.824 1009.95 552.141 1051.06 615.779 1070.57C670.112 1087.25 721.18 1089.27 776.772 1096.08L776.759 1212.5V1213.56L744.673 1217.21C677.428 1217.02 611.631 1211.62 546.314 1194.69C511.491 1185.66 478.322 1171.24 444.192 1160.23C440.871 1163.43 460.636 1178.18 463.397 1180.19C544.903 1239.98 678.158 1263.26 776.772 1255.25Z" fill="#4D9A58"/>
<path d="M872.558 1185.92C853.297 1199.35 809.631 1212.2 786.271 1212.49L781.814 1212.99L776.76 1213.56V1212.5L776.772 1096.08C805.775 1099.63 833.593 1103.02 860.467 1115.72C895.339 1132.2 909.066 1160.45 872.558 1185.92Z" fill="#256645"/>
<path d="M1314.65 1095.87C1206.12 1264.82 973.845 1382.23 776.77 1395.41V1255.25C897.605 1245.43 1008.44 1194.02 1105.39 1124.18C1150.94 1091.38 1243.43 1001.52 1295.73 998.586C1367.61 994.559 1337.97 1059.56 1314.65 1095.87Z" fill="#256645"/>
<path d="M900.318 1200.59L922.893 1181.62C941.71 1159.27 940.196 1136.06 929.881 1110.26C972.805 1081.37 1011.9 1046.61 1046.44 1008.21C1074.41 977.122 1121.8 904.337 1158.37 889.711C1200.97 872.67 1227.22 897.325 1213.97 940.554C1195.82 999.716 1106.71 1086.2 1056.89 1123.2C1010.61 1157.56 956.738 1187.19 900.318 1200.59Z" fill="#256645"/>
<path d="M819.549 1067.54L856.288 1043.75C907.623 1008.14 938.737 954.274 978.772 909.665C994.365 892.283 1031.88 863.828 1053.39 887.157C1076.55 912.268 1033.75 970.165 1017.65 991.305C1004.89 1008.06 925.789 1092.23 909.016 1090.82C905.805 1090.54 884.878 1079.98 877.057 1077.75C858.185 1072.37 838.779 1070.79 819.549 1067.54Z" fill="#256645"/>
</svg>
